<svg width="192" height="192" viewBox="0 0 192 192" fill="none" xmlns="http://www.w3.org/2000/svg">
  <rect width="192" height="192" rx="20" fill="url(#backgroundGradient)"/>
  
  <defs>
    <!-- Background gradient matching your reference -->
    <radialGradient id="backgroundGradient" cx="50%" cy="50%">
      <stop offset="0%" stopColor="#4a9aa8" />
      <stop offset="30%" stopColor="#3a7f8f" />
      <stop offset="70%" stopColor="#2d6a7a" />
      <stop offset="100%" stopColor="#1a4d5c" />
    </radialGradient>
    
    <!-- Main infinity gradient -->
    <linearGradient id="infinityGradient" x1="0%" y1="0%" x2="100%" y2="100%">
      <stop offset="0%" stopColor="#4ade80" />
      <stop offset="30%" stopColor="#22c55e" />
      <stop offset="70%" stopColor="#16a34a" />
      <stop offset="100%" stopColor="#15803d" />
    </linearGradient>
    
    <!-- Inner highlight gradient -->
    <linearGradient id="innerHighlight" x1="20%" y1="20%" x2="80%" y2="80%">
      <stop offset="0%" stopColor="#86efac" opacity="0.9" />
      <stop offset="50%" stopColor="#4ade80" opacity="0.7" />
      <stop offset="100%" stopColor="#22c55e" opacity="0.5" />
    </linearGradient>
    
    <!-- Shadow gradient -->
    <linearGradient id="shadowGradient" x1="0%" y1="0%" x2="100%" y2="100%">
      <stop offset="0%" stopColor="#166534" opacity="0.8" />
      <stop offset="100%" stopColor="#15803d" opacity="0.6" />
    </linearGradient>
    
    <!-- Glow filter -->
    <filter id="glowEffect" x="-20%" y="-20%" width="140%" height="140%">
      <feGaussianBlur stdDeviation="6" result="coloredBlur"/>
      <feMerge> 
        <feMergeNode in="coloredBlur"/>
        <feMergeNode in="SourceGraphic"/>
      </feMerge>
    </filter>
  </defs>
  
  <!-- Infinity symbol centered and scaled for icon -->
  <g transform="translate(46, 76) scale(0.5, 0.5)">
    <!-- Background shadow for depth -->
    <path
      d="M100 50 C100 22.5, 72.5 5, 50 22.5 C27.5 5, 0 22.5, 0 50 
         C0 77.5, 27.5 95, 50 77.5 C72.5 95, 100 77.5, 100 50 
         C100 77.5, 127.5 95, 150 77.5 C172.5 95, 200 77.5, 200 50 
         C200 22.5, 172.5 5, 150 22.5 C127.5 5, 100 22.5, 100 50 Z"
      fill="url(#shadowGradient)"
      transform="translate(2, 4)"
      opacity="0.3"
    />
    
    <!-- Main infinity shape -->
    <path
      d="M100 50 C100 22.5, 72.5 5, 50 22.5 C27.5 5, 0 22.5, 0 50 
         C0 77.5, 27.5 95, 50 77.5 C72.5 95, 100 77.5, 100 50 
         C100 77.5, 127.5 95, 150 77.5 C172.5 95, 200 77.5, 200 50 
         C200 22.5, 172.5 5, 150 22.5 C127.5 5, 100 22.5, 100 50 Z"
      fill="url(#infinityGradient)"
      stroke="url(#innerHighlight)"
      strokeWidth="2"
      filter="url(#glowEffect)"
    />
    
    <!-- Inner loops for 3D depth -->
    <ellipse cx="50" cy="50" rx="25" ry="18" fill="none" stroke="url(#innerHighlight)" strokeWidth="3" opacity="0.6"/>
    <ellipse cx="150" cy="50" rx="25" ry="18" fill="none" stroke="url(#innerHighlight)" strokeWidth="3" opacity="0.6"/>
    
    <!-- Center crossing highlight -->
    <ellipse cx="100" cy="50" rx="5" ry="10" fill="url(#innerHighlight)" opacity="0.9"/>
    
    <!-- Top highlights for glass effect -->
    <ellipse cx="50" cy="35" rx="18" ry="10" fill="url(#innerHighlight)" opacity="0.4"/>
    <ellipse cx="150" cy="35" rx="18" ry="10" fill="url(#innerHighlight)" opacity="0.4"/>
  </g>
</svg>