<svg width="192" height="192" viewBox="0 0 192 192" fill="none" xmlns="http://www.w3.org/2000/svg">
  <defs>
    <linearGradient id="bg-gradient" x1="0%" y1="0%" x2="100%" y2="100%">
      <stop offset="0%" stop-color="#1a4d5c" />
      <stop offset="30%" stop-color="#2d6a7a" />
      <stop offset="70%" stop-color="#3a7f8f" />
      <stop offset="100%" stop-color="#4a9aa8" />
    </linearGradient>
    <linearGradient id="infinity-gradient" x1="0%" y1="0%" x2="100%" y2="100%">
      <stop offset="0%" stop-color="#00ff88" />
      <stop offset="50%" stop-color="#00e676" />
      <stop offset="100%" stop-color="#00c853" />
    </linearGradient>
    <filter id="glow">
      <feGaussianBlur stdDeviation="4" result="coloredBlur"/>
      <feMerge> 
        <feMergeNode in="coloredBlur"/>
        <feMergeNode in="SourceGraphic"/>
      </feMerge>
    </filter>
  </defs>
  
  <!-- Background rounded square -->
  <rect width="192" height="192" rx="32" fill="url(#bg-gradient)" stroke="rgba(255, 255, 255, 0.1)" stroke-width="2"/>
  
  <!-- Infinity symbol -->
  <g transform="translate(46, 76)">
    <path 
      d="M20 20 C20 8, 30 0, 40 8 C45 5, 55 5, 60 8 C70 0, 80 8, 80 20 C80 32, 70 40, 60 32 C55 35, 45 35, 40 32 C30 40, 20 32, 20 20 Z" 
      fill="url(#infinity-gradient)"
      filter="url(#glow)"
    />
    <!-- Inner hollow -->
    <ellipse cx="35" cy="20" rx="8" ry="6" fill="#1a4d5c" opacity="0.7"/>
    <ellipse cx="65" cy="20" rx="8" ry="6" fill="#1a4d5c" opacity="0.7"/>
  </g>
</svg>