<svg width="512" height="512" viewBox="0 0 512 512" fill="none" xmlns="http://www.w3.org/2000/svg">
  <rect width="512" height="512" rx="85" fill="#166534"/>
  <path d="M388.128 171.2C411.984 171.2 429.128 183.68 429.128 214.4C429.128 245.12 411.984 257.6 388.128 257.6C358.24 257.6 325.76 245.12 293.28 222.88C260.8 200.64 228.32 183.68 198.432 183.68C174.576 183.68 157.432 196.16 157.432 226.88C157.432 257.6 174.576 270.08 198.432 270.08C228.32 270.08 260.8 287.04 293.28 309.28C325.76 331.52 358.24 344 388.128 344C434.176 344 467.328 316.48 467.328 257.6C467.328 198.72 434.176 171.2 388.128 171.2Z" fill="#22c55e"/>
  <path d="M123.872 171.2C100.016 171.2 82.872 183.68 82.872 214.4C82.872 245.12 100.016 257.6 123.872 257.6C153.76 257.6 186.24 245.12 218.72 222.88C251.2 200.64 283.68 183.68 313.568 183.68C337.424 183.68 354.568 196.16 354.568 226.88C354.568 257.6 337.424 270.08 313.568 270.08C283.68 270.08 251.2 287.04 218.72 309.28C186.24 331.52 153.76 344 123.872 344C77.824 344 44.672 316.48 44.672 257.6C44.672 198.72 77.824 171.2 123.872 171.2Z" fill="#22c55e"/>
</svg>