<svg width="192" height="192" viewBox="0 0 192 192" fill="none" xmlns="http://www.w3.org/2000/svg">
  <rect width="192" height="192" rx="32" fill="#166534"/>
  <path d="M145.424 64C153.744 64 160.424 68.768 160.424 80C160.424 91.232 153.744 96 145.424 96C134.04 96 121.656 91.232 109.272 83.232C96.888 75.232 84.504 68.768 73.128 68.768C64.808 68.768 58.128 73.536 58.128 84.768C58.128 96 64.808 100.768 73.128 100.768C84.504 100.768 96.888 107.232 109.272 115.232C121.656 123.232 134.04 128 145.424 128C162.064 128 177.424 118.456 177.424 96C177.424 73.544 162.064 64 145.424 64Z" fill="#22c55e"/>
  <path d="M46.576 64C38.256 64 31.576 68.768 31.576 80C31.576 91.232 38.256 96 46.576 96C57.96 96 70.344 91.232 82.728 83.232C95.112 75.232 107.496 68.768 118.872 68.768C127.192 68.768 133.872 73.536 133.872 84.768C133.872 96 127.192 100.768 118.872 100.768C107.496 100.768 95.112 107.232 82.728 115.232C70.344 123.232 57.96 128 46.576 128C29.936 128 14.576 118.456 14.576 96C14.576 73.544 29.936 64 46.576 64Z" fill="#22c55e"/>
</svg>